<svg xmlns="http://www.w3.org/2000/svg" width="63" height="64" viewBox="0 0 63 64">
    <g fill="none" fill-rule="evenodd">
        <circle cx="31.5" cy="32" r="31.5" fill="#FFE17D"/>
        <path fill="#7D5046" d="M20.5 31.5A2.5 2.5 0 0 1 18 29v-2a2.5 2.5 0 1 1 5 0v2a2.5 2.5 0 0 1-2.5 2.5z"/>
        <path fill="#9C6846" d="M20.5 24.5a2.51 2.51 0 0 0-.5.05V28a1.5 1.5 0 0 0 3 0v-1a2.5 2.5 0 0 0-2.5-2.5z"/>
        <path fill="#7D5046" d="M42.5 31.5A2.5 2.5 0 0 1 40 29v-2a2.5 2.5 0 1 1 5 0v2a2.5 2.5 0 0 1-2.5 2.5z"/>
        <path fill="#9C6846" d="M42.5 24.5a2.51 2.51 0 0 0-.5.05V28a1.5 1.5 0 0 0 3 0v-1a2.5 2.5 0 0 0-2.5-2.5z"/>
        <path fill="#AA7346" d="M21.278 47.5c-.31 0-.62-.118-.865-.356a1.397 1.397 0 0 1-.075-1.903C22.93 42.272 27.105 40.5 31.5 40.5c4.397 0 8.57 1.773 11.162 4.742a1.397 1.397 0 0 1-.075 1.902 1.231 1.231 0 0 1-1.805-.08c-2.118-2.425-5.588-3.872-9.282-3.872s-7.164 1.447-9.282 3.873a1.244 1.244 0 0 1-.94.434z"/>
        <path fill="#FFD164" d="M36.111 58.923c-17.416 0-31.534-14.119-31.534-31.534 0-7.542 2.651-14.463 7.068-19.889C4.54 13.282 0 22.092 0 31.966 0 49.382 14.118 63.5 31.534 63.5c9.873 0 18.684-4.54 24.466-11.645a31.398 31.398 0 0 1-19.889 7.068z"/>
    </g>
</svg>
