<?xml version="1.0"?>
<svg xmlns="http://www.w3.org/2000/svg" xmlns:xlink="http://www.w3.org/1999/xlink" version="1.1" viewBox="0 0 224 224" width="64px" height="64px"><g fill="none" fill-rule="nonzero" stroke="none" stroke-width="1" stroke-linecap="butt" stroke-linejoin="miter" stroke-miterlimit="10" stroke-dasharray="" stroke-dashoffset="0" font-family="none" font-weight="none" font-size="none" text-anchor="none" style="mix-blend-mode: normal"><path d="M0,224v-224h224v224z" fill="none"/><g id="Layer_1"><g><g fill="#60be32"><g><g><g><g><g><g><path d="M220.54375,112c0,-59.9375 -48.60625,-108.54375 -108.54375,-108.54375c-59.9375,0 -108.54375,48.60625 -108.54375,108.54375c0,59.9375 48.60625,108.54375 108.54375,108.54375c59.9375,0 108.54375,-48.60625 108.54375,-108.54375z"/></g></g></g></g></g></g></g><g fill="#ffffff"><g><path d="M171.7625,75.64375c-2.5375,-6.60625 -7.74375,-5.55625 -13.3875,-4.41875c-3.36875,0.7 -18.375,5.075 -42.04375,30.1c-9.84375,10.36875 -16.31875,18.6375 -20.60625,24.9375c-2.625,-3.19375 -5.6,-6.65 -8.75,-9.75625c-9.66875,-9.66875 -20.475,-16.31875 -20.9125,-16.58125c-4.50625,-2.75625 -10.4125,-1.35625 -13.2125,3.19375c-2.75625,4.50625 -1.35625,10.4125 3.15,13.2125c0.0875,0.04375 9.3625,5.775 17.325,13.78125c8.1375,8.1375 15.53125,19.1625 15.61875,19.29375c1.79375,2.7125 4.8125,4.2875 8.00625,4.2875c0.525,0 1.09375,-0.04375 1.6625,-0.13125c3.7625,-0.65625 6.7375,-3.45625 7.65625,-7.13125c0.04375,-0.0875 3.85,-10.63125 23.93125,-31.80625c16.1875,-17.10625 26.99375,-22.53125 30.75625,-24.01875c0.04375,0 0.04375,0 0.13125,0c0,0 0.13125,-0.04375 0.35,-0.175c0.65625,-0.2625 1.00625,-0.35 1.00625,-0.35c-0.175,0.04375 -0.2625,0.04375 -0.2625,0.04375v-0.04375c1.75,-0.74375 4.9875,-2.14375 5.03125,-2.1875c4.85625,-2.1 6.475,-7.35 4.55,-12.25z"/></g></g></g></g></g></svg>
