<?xml version="1.0"?>
<svg xmlns="http://www.w3.org/2000/svg" xmlns:xlink="http://www.w3.org/1999/xlink" version="1.1" viewBox="0 0 192 192" width="50px" height="50px">
<g  ><path d="M0,192v-192h192v192z" fill="none" stroke="none"/><g id="original-icon" stroke="none" opacity="0" visibility="hidden">
<g id="surface1">
<path d="M95.64,-0.12c-0.165,0.03 -0.33,0.075 -0.48,0.12h-52.92c-0.12,0 -0.24,0 -0.36,0c-1.095,0.105 -2.115,0.66 -2.76,1.56l-22.68,30.24c-0.09,0.12 -0.165,0.24 -0.24,0.36l-0.12,0.12c-0.045,0.075 -0.09,0.165 -0.12,0.24c-0.045,0.045 -0.075,0.075 -0.12,0.12c0,0.045 0,0.075 0,0.12c-0.045,0.075 -0.09,0.165 -0.12,0.24c-0.045,0.045 -0.075,0.075 -0.12,0.12c0,0.075 0,0.165 0,0.24c-0.045,0.045 -0.075,0.075 -0.12,0.12c0,0.075 0,0.165 0,0.24c-0.045,0.045 -0.075,0.075 -0.12,0.12c0,0.075 0,0.165 0,0.24c0,0.045 0,0.075 0,0.12c0,0.075 0,0.165 0,0.24c0,0.045 0,0.075 0,0.12c-0.015,0.195 -0.015,0.405 0,0.6v153c0,2.115 1.725,3.84 3.84,3.84h153.6c2.115,0 3.84,-1.725 3.84,-3.84v-153.12c0.015,-0.165 0.015,-0.315 0,-0.48c0,-0.12 0,-0.24 0,-0.36c-0.09,-0.645 -0.33,-1.275 -0.72,-1.8c0,-0.045 0,-0.075 0,-0.12l-23.04,-30.72c-0.735,-0.99 -1.89,-1.575 -3.12,-1.56h-53.04c-0.345,-0.09 -0.72,-0.135 -1.08,-0.12zM44.16,7.68h48v23.04h-65.28zM99.84,7.68h48l17.28,23.04h-65.28zM23.04,38.4h145.92v145.92h-145.92zM82.56,53.76c-5.31,0 -9.6,4.29 -9.6,9.6c0,5.31 4.29,9.6 9.6,9.6h26.88c5.31,0 9.6,-4.29 9.6,-9.6c0,-5.31 -4.29,-9.6 -9.6,-9.6zM82.56,61.44h26.88c0.825,0 1.92,1.095 1.92,1.92c0,0.825 -1.095,1.92 -1.92,1.92h-26.88c-0.825,0 -1.92,-1.095 -1.92,-1.92c0,-0.825 1.095,-1.92 1.92,-1.92z"/></g></g>
<g id="subtracted-icon" ><g id="surface1 1"><path d="M96.72,0h53.04c1.23,-0.015 2.385,0.57 3.12,1.56l23.04,30.72c0,0.045 0,0.075 0,0.12c0.39,0.525 0.63,1.155 0.72,1.8c0,0.12 0,0.24 0,0.36c0.015,0.165 0.015,0.315 0,0.48v153.12c0,2.115 -1.725,3.84 -3.84,3.84l-138.49296,0c1.64462,-0.50675 3.21089,-1.54636 4.20512,-2.872l4.84616,-4.808h125.60168v-145.92h-145.92v100.37865l-7.68,7.75046v-111.36911c-0.015,-0.195 -0.015,-0.405 0,-0.6c0,-0.045 0,-0.075 0,-0.12c0,-0.075 0,-0.165 0,-0.24c0,-0.045 0,-0.075 0,-0.12c0,-0.075 0,-0.165 0,-0.24c0.045,-0.045 0.075,-0.075 0.12,-0.12c0,-0.075 0,-0.165 0,-0.24c0.045,-0.045 0.075,-0.075 0.12,-0.12c0,-0.075 0,-0.165 0,-0.24c0.045,-0.045 0.075,-0.075 0.12,-0.12c0.03,-0.075 0.075,-0.165 0.12,-0.24c0,-0.045 0,-0.075 0,-0.12c0.045,-0.045 0.075,-0.075 0.12,-0.12c0.03,-0.075 0.075,-0.165 0.12,-0.24l0.12,-0.12c0.075,-0.12 0.15,-0.24 0.24,-0.36l22.68,-30.24c0.645,-0.9 1.665,-1.455 2.76,-1.56c0.12,0 53.16,0 53.28,0c0.15,-0.045 0.315,-0.09 0.48,-0.12c0.36,-0.015 0.735,0.03 1.08,0.12zM26.88,30.72h65.28v-23.04h-48zM99.84,30.72h65.28l-17.28,-23.04h-48zM109.44,53.76c5.31,0 9.6,4.29 9.6,9.6c0,5.31 -4.29,9.6 -9.6,9.6h-26.88c-5.31,0 -9.6,-4.29 -9.6,-9.6c0,-5.31 4.29,-9.6 9.6,-9.6zM80.64,63.36c0,0.825 1.095,1.92 1.92,1.92h26.88c0.825,0 1.92,-1.095 1.92,-1.92c0,-0.825 -1.095,-1.92 -1.92,-1.92h-26.88c-0.825,0 -1.92,1.095 -1.92,1.92z"/></g></g>
<g >
<g id="Layer_9">
<path d="M71.85644,106.616c-3.072,0 -5.76,1.152 -8.448,2.688v0c-0.768,0.768 -1.536,1.152 -2.304,1.92v0v0l-0.768,0.768l-0.384,0.384v0l-1.152,1.152l-47.616,48c-0.384,0.384 -0.768,1.152 -1.152,1.536l-6.528,23.04c-0.768,1.92 0.384,4.224 2.688,4.608c0.768,0.384 1.536,0.384 1.92,0l23.04,-6.144c0.768,0 1.152,-0.384 1.92,-1.152l47.616,-47.232l1.92,-1.92l0.768,-0.768v0c0.768,-0.768 1.152,-1.536 1.92,-2.688c0.384,-0.768 1.152,-1.536 1.536,-2.688v0c1.152,-2.688 1.536,-6.144 0.768,-8.832c0,-0.768 -0.384,-1.152 -0.768,-1.92c0,-0.384 0,-0.768 -0.384,-1.152c-0.384,-0.768 -0.768,-1.92 -1.536,-2.688v0c-0.384,-0.768 -1.152,-1.536 -1.92,-2.304v0c-2.304,-2.304 -4.992,-3.456 -7.68,-4.224h-0.384v0c-0.768,-0.384 -1.92,-0.384 -3.072,-0.384c0.384,0 0,0 0,0zM63.79244,119.288l11.52,11.52l-44.16,44.16l-11.52,-11.136zM15.79244,171.128l8.064,8.064l-11.136,3.072z"/></g>
<g opacity="0">
<g id="IOS" font-family="-apple-system, BlinkMacSystemFont, &quot;San Francisco&quot;, HelveticaNeue-Light, &quot;Helvetica Neue Light&quot;, &quot;Helvetica Neue&quot;, &quot;Segoe UI&quot;, &quot;Fira Sans&quot;, Roboto, Oxygen, Ubuntu, &quot;Droid Sans&quot;, Arial, sans-serif" font-weight="normal" font-size="16" text-anchor="start" visibility="hidden"/><g id="IOS_copy"><path d="M72.30416,98.888c-6.144,0 -12.288,2.304 -16.512,6.912l-2.688,2.688l-5.376,5.376v0l-41.856,42.24c-1.536,1.536 -2.304,3.072 -3.072,4.992l-6.528,23.04c-1.152,3.84 0,8.448 2.688,11.136c2.304,2.304 5.376,3.456 8.448,3.456c1.152,0 1.92,0 3.072,-0.384l23.04,-6.144c1.92,-0.384 3.84,-1.536 4.992,-3.072l48.768,-48.384c0.768,-0.768 1.152,-1.536 1.536,-2.304c8.832,-9.216 8.832,-23.808 0,-33.024c-4.224,-4.224 -10.368,-6.528 -16.512,-6.528z"/></g>
</g></g>
<path d="M3.2675,191v-84.384h84.7325v84.384z" id="overlay-drag" stroke="none" opacity="0"/>
</g>
</svg>
