<svg xmlns="http://www.w3.org/2000/svg" width="10" height="10" viewBox="0 0 10 10">
    <path fill="#000" fill-rule="nonzero" d="M9 0a1 1 0 0 0-.885 1.466l-.855 1.07a1 1 0 0 0-.9.198l-1.363-.682a1 1 0 1 0-1.995 0l-1.361.68a1 1 0 1 0 .357.716l1.361-.68a1 1 0 0 0 1.282 0l1.362.68a1 1 0 1 0 1.882-.413l.855-1.07A1 1 0 1 0 9 0zm0 5.5a1 1 0 0 0-.898 1.438l-.854 1.094a1 1 0 0 0-.714.083L5.466 7.26a1 1 0 1 0-1.955-.394l-1.74.497a1 1 0 1 0 .218.77l1.74-.496a1 1 0 0 0 1.236.248l1.07.855a1 1 0 1 0 1.844-.217l.832-1.066A1 1 0 1 0 9 5.5z" opacity=".42"/>
</svg>
