<?xml version="1.0" encoding="UTF-8"?>
<svg xmlns="http://www.w3.org/2000/svg" xmlns:xlink="http://www.w3.org/1999/xlink" viewBox="0 0 50 50" version="1.1" width="50px" height="50px">
<g id="surface1">
<path style=" " d="M 5 5 C 3.898438 5 3 5.898438 3 7 L 3 43 C 3 44.101563 3.898438 45 5 45 L 45 45 C 46.101563 45 47 44.101563 47 43 L 47 31.199219 L 45 33.199219 L 45 43 L 5 43 L 5 7 L 45 7 L 45 16.800781 L 47 18.800781 L 47 7 C 47 5.898438 46.101563 5 45 5 Z M 20.5 11 C 18.601563 11 17 12.601563 17 14.5 C 17 16.398438 18.601563 18 20.5 18 L 29.5 18 C 31.398438 18 33 16.398438 33 14.5 C 33 12.601563 31.398438 11 29.5 11 Z M 20.5 13 L 29.5 13 C 30.300781 13 31 13.699219 31 14.5 C 31 15.300781 30.300781 16 29.5 16 L 20.5 16 C 19.699219 16 19 15.300781 19 14.5 C 19 13.699219 19.699219 13 20.5 13 Z M 42 17 C 41.75 17 41.5 17.101563 41.300781 17.300781 C 40.902344 17.699219 40.902344 18.300781 41.300781 18.699219 L 46.597656 24 L 29 24 C 28.398438 24 28 24.398438 28 25 C 28 25.601563 28.398438 26 29 26 L 46.597656 26 L 41.300781 31.300781 C 40.902344 31.699219 40.902344 32.300781 41.300781 32.699219 C 41.5 32.898438 41.699219 33 42 33 C 42.300781 33 42.5 32.898438 42.699219 32.699219 L 49.699219 25.699219 C 50.097656 25.300781 50.097656 24.699219 49.699219 24.300781 L 42.699219 17.300781 C 42.5 17.101563 42.25 17 42 17 Z "/>
</g>
</svg>
